<svg width="40" height="40" viewBox="0 0 40 40" fill="none" xmlns="http://www.w3.org/2000/svg">
  <!-- Background Circle -->
  <circle cx="20" cy="20" r="20" fill="#f97316"/>
  
  <!-- Hand Icon (detailed for desktop) -->
  <path d="M15 10C15 8.89543 15.8954 8 17 8H23C24.1046 8 25 8.89543 25 10V15C25 16.1046 24.1046 17 23 17H17C15.8954 17 15 16.1046 15 15V10Z" fill="white"/>
  
  <!-- Fingers -->
  <path d="M12.5 20C12.5 18.8954 13.3954 18 14.5 18H25.5C26.6046 18 27.5 18.8954 27.5 20V25C27.5 26.1046 26.6046 27 25.5 27H14.5C13.3954 27 12.5 26.1046 12.5 25V20Z" fill="white"/>
  
  <!-- Additional detail lines -->
  <path d="M18 12H22" stroke="white" stroke-width="1" stroke-linecap="round"/>
  <path d="M16 22H26" stroke="white" stroke-width="1" stroke-linecap="round"/>
  
  <!-- LSM Text (larger for desktop) -->
  <text x="20" y="35" text-anchor="middle" font-family="Arial, sans-serif" font-size="8" font-weight="bold" fill="white">LSM</text>
</svg> 